<?xml version="1.0" encoding="UTF-8"?> <svg xmlns="http://www.w3.org/2000/svg" width="40" height="40" viewBox="0 0 40 40" fill="none"> <rect width="40" height="40" fill="#F4F0EB"></rect> <path d="M27.3125 14.5V25.5C27.3125 29.9 26.3984 31 22.7422 31H17.2578C13.6016 31 12.6875 29.9 12.6875 25.5V14.5C12.6875 10.1 13.6016 9 17.2578 9H22.7422C26.3984 9 27.3125 10.1 27.3125 14.5Z" stroke="#41392E" stroke-width="1.5" stroke-linecap="round" stroke-linejoin="round"></path> <path d="M22.25 12.8501H17.75" stroke="#41392E" stroke-width="1.5" stroke-linecap="round" stroke-linejoin="round"></path> <path d="M20.0001 27.8099C20.9631 27.8099 21.7438 27.0465 21.7438 26.1049C21.7438 25.1633 20.9631 24.3999 20.0001 24.3999C19.0371 24.3999 18.2563 25.1633 18.2563 26.1049C18.2563 27.0465 19.0371 27.8099 20.0001 27.8099Z" stroke="#41392E" stroke-width="1.5" stroke-linecap="round" stroke-linejoin="round"></path> </svg> 