<?xml version="1.0" encoding="UTF-8"?> <svg xmlns="http://www.w3.org/2000/svg" width="40" height="40" viewBox="0 0 40 40" fill="none"><rect width="40" height="40" fill="#F4F0EB"></rect><path d="M20 30.75C14.07 30.75 9.25 25.93 9.25 20C9.25 14.07 14.07 9.25 20 9.25C25.93 9.25 30.75 14.07 30.75 20C30.75 25.93 25.93 30.75 20 30.75ZM20 10.75C14.9 10.75 10.75 14.9 10.75 20C10.75 25.1 14.9 29.25 20 29.25C25.1 29.25 29.25 25.1 29.25 20C29.25 14.9 25.1 10.75 20 10.75Z" fill="#41392E"></path><path d="M23.7101 23.9298C23.5801 23.9298 23.4501 23.8998 23.3301 23.8198L20.2301 21.9698C19.4601 21.5098 18.8901 20.4998 18.8901 19.6098V15.5098C18.8901 15.0998 19.2301 14.7598 19.6401 14.7598C20.0501 14.7598 20.3901 15.0998 20.3901 15.5098V19.6098C20.3901 19.9698 20.6901 20.4998 21.0001 20.6798L24.1001 22.5298C24.4601 22.7398 24.5701 23.1998 24.3601 23.5598C24.2101 23.7998 23.9601 23.9298 23.7101 23.9298Z" fill="#41392E"></path></svg> 